<?xml version="1.0" encoding="UTF-8"?>
<svg id="Livello_1" xmlns="http://www.w3.org/2000/svg" version="1.1" viewBox="0 0 141.7 141.7">
  <!-- Generator: Adobe Illustrator 29.1.0, SVG Export Plug-In . SVG Version: 2.1.0 Build 46)  -->
  <defs>
    <style>
      .st0 {
        fill: #ffffff;
      }
    </style>
  </defs>
  <path class="st0" d="M127.4,92.5L94.6,15.2h0c-.2-.4-.5-.7-.8-.8h0c-.4-.1-.8-.1-1.1,0h0L15.2,47.1c-.8.3-1.2,1.3-.9,2.1h0l32.8,77.3h0c.2.4.5.7.8.8h0c.4,0,.8,0,1.2,0l77.3-32.8c.8-.3,1.2-1.3.9-2.1h0ZM124.2,93.2l-62.6,13h-.3c-.4.3-.7.5-.9.8l-10.9,17.4h-.2c-.3.3-.7,0-.8-.2l-13-62.7v-.2c-.2-.3-.4-.6-.7-.8l-17.4-11v-.2c-.3-.3-.1-.7.2-.8l62.7-13h.2c.3-.2.6-.4.9-.7l11-17.4h.2c.3-.3.7-.1.8.2l13,62.7v.2c.2.4.5.7.7.9l17.4,10.9v.2c.3.3,0,.7-.2.8h-.1Z"/>
</svg>