<?xml version="1.0" encoding="UTF-8"?>
<svg id="Livello_1" xmlns="http://www.w3.org/2000/svg" version="1.1" viewBox="0 0 141.7 141.7">
  <!-- Generator: Adobe Illustrator 29.1.0, SVG Export Plug-In . SVG Version: 2.1.0 Build 46)  -->
  <defs>
    <style>
      .st0 {
        fill: #ffffff;
      }
    </style>
  </defs>
  <path class="st0" d="M32.6,69.5c-2.2.8-2.9,1.6-2.9,2.9s.4,1.8,1.1,2.4c.6.5,1.4.8,2.4.8s1.7-.4,2.5-.9c.7-.4,1.1-.7,1.3-.7s.4.3.6.5c.6.8,1.4,1.1,2.2,1.1,1.7,0,2.9-1.3,2.9-1.5s0-.4-.2-.4-.3,0-.4.2c-.2,0-.5.2-.9.2-1.3,0-1.7-1.4-1.6-3l.2-6c0-2.6-1.1-4-3.6-4s-6.4,2.4-6.4,4.2.2.5.5.5c.5,0,1.4-.2,2-.7.3-.2.3-.6.3-1.2,0-1.1,1.2-1.6,2.2-1.6,2.1,0,2.5,1.7,2.5,3v1.6c0,.5,0,.8-.6,1l-4.1,1.5h0ZM32.4,72c0-1.3,1-1.9,3-2.5.6-.2,1.2-.3,1.4-.3s.3,0,.3.4v2c0,.7,0,1.2-.5,1.6-.3.3-1.4.9-2.1.9-1.8,0-2.2-1.5-2.2-2.1"/>
  <path class="st0" d="M20,72c.5,1.3,1,2.6,1.3,3.6.1,0,.3,0,.4,0s.3,0,.3,0c.4-1.2.8-2,1.1-2.8.6-1.4,2.7-6.4,3.2-7.3,1-1.9,1.3-2.8,2.5-3h.5c.2-.3.2-.8,0-.9-1,0-1.6,0-2.4,0s-1.5,0-2.6,0c-.2,0-.3.6,0,.9h.8c.4.2.6.3.6.6s-.1.9-.6,2.1c-.3.9-1.5,3.9-2,5.1-.3.7-.5,1.2-.7,1.3-.1,0-.2-.4-.6-1.1-.8-1.8-1.8-4.2-2.6-6.6-.3-1-.3-1.2.8-1.4h.4c.2-.2.2-.8,0-.9-1.2,0-1.9,0-2.8,0s-2.4,0-3.2,0c-.3,0-.3.6-.1.9h.7c1.2.3,1.6,1.4,2.1,2.7l2.9,7v-.2Z"/>
  <path class="st0" d="M59.5,61.1c-5.7,0-8.3,4-8.3,7.7s.8,3.9,2,5.1,2.9,1.8,4.7,1.8,4.6-1,5.8-3.5c0-.3-.3-.6-.6-.5-.8,1.2-1.8,2.1-3.8,2.1-3.7,0-5.5-3.2-5.5-5.9s2.3-5.5,4.8-5.5,2.7.9,3.4,1.8c0,.2.3.2.5.2.4,0,.8-.7.8-1.3s-.2-1.1-.5-1.4c-.9-.4-2.3-.6-3.1-.6"/>
  <path class="st0" d="M48.1,55c0-1.5,0-3.2,0-4.3,0,0-.2-.2-.3-.2-1.2.7-2.9,1.2-3.7,1.4-.2,0-.2.6,0,.7l.3.2c1,.6,1.1.8,1.1,2.9v15.6c0,2.5,0,2.8-1.3,3h-.8c-.2.3-.2.9,0,1,1,0,2.1,0,3.3,0s2.2,0,3.3,0c.2,0,.3-.7,0-.9h-.8c-1.2-.3-1.3-.6-1.3-3.1v-16.3h.1Z"/>
  <path class="st0" d="M99.8,71.3c0,2.5,0,2.8-1.3,3h-.6c-.2.3-.2.9,0,1,1,0,1.9,0,3.1,0s2.2,0,3.3,0c.2,0,.3-.7,0-.9h-.8c-1.2-.3-1.3-.6-1.3-3.1v-5.9c0-2.4-1.3-4.3-4.1-4.3s-3.3.8-4.7,1.8c-.3.2-.6.3-.9.3-1-1.4-1.9-2-3.7-2s-3.3.8-4.6,1.8c-.2,0-.4-.2-.4-.4v-1.6c0-.2-.2-.2-.4-.2-.7.5-2.7,1.4-3.4,1.7-.2,0-.2.5,0,.6l.3.2c.9.6.9.8.9,2.1v6c0,2.5,0,2.8-1.3,3h-.8c-.2.3-.2.9,0,1,1.1,0,2.1,0,3.3,0s2.2,0,3.1,0c.2,0,.3-.7,0-.9h-.6c-1.2-.3-1.3-.6-1.3-3.1v-5.3c0-1.1.2-1.6.5-2,.5-.6,1.5-1.2,2.9-1.2,2.1,0,3.2,1.2,3.2,3.5v5c0,2.5,0,2.8-1.3,3h-.6c-.2.3-.2.9,0,1,1,0,1.9,0,3.1,0s2.2,0,3.2,0c.2,0,.3-.7,0-.9h-.7c-1.2-.3-1.3-.6-1.3-3.1v-5.3c0-1.2,0-1.6.5-2.1.5-.6,1.5-1.2,2.9-1.2,2.2,0,3.2,1.2,3.2,3.5v5h.6Z"/>
  <path class="st0" d="M106.4,72.2v2.9c0,0,.2.2.3.2h0c.2-.3.4-.6.7-.6s.7.2,1.4.4c.7.2,1.7.4,2.9.4,4.6,0,7.9-3.2,7.9-7.8s-2.7-6.8-6.6-6.8-3.1.6-4,1.1c-.2,0-.3,0-.3-.7v-6.5c0-1.5,0-3.1,0-4.3,0,0-.2-.2-.3-.2-1.3.7-3,1.1-3.8,1.4-.2,0-.2.6,0,.7l.3.2c1,.6,1.1.8,1.1,2.9v16.4l.2.3ZM109,65.1c0-1.3,0-1.7.4-2,.5-.3,1.3-.6,2.3-.6,3.4,0,5.2,2.8,5.2,6.3s-1.3,5.7-4.5,5.7-2-.4-2.6-1.1-.9-1.8-.9-3v-5.4h0Z"/>
  <path class="st0" d="M122.8,71.3c0,2.5,0,2.8-1.3,3h-.7c-.2.3-.2.9,0,1,1,0,2,0,3.2,0s2.2,0,3.2,0c.2,0,.3-.7,0-.9h-.7c-1.2-.3-1.3-.6-1.3-3.1v-6.2c0-1.4,0-3.1,0-4.3,0,0-.2-.2-.3-.2-.8.5-2.8,1.4-3.5,1.7-.2,0-.2.5,0,.6l.3.2c.9.6.9.8.9,2.1v6h.1ZM124,52.4c-1,0-1.9.7-1.9,1.8s.7,1.7,1.8,1.7,1.8-.6,1.8-1.8-.7-1.8-1.7-1.8"/>
  <path class="st0" d="M69.1,75.7c1,0,1.7-.4,2.5-.9.7-.4,1.1-.7,1.3-.7s.4.3.6.5c.6.8,1.4,1.1,2.2,1.1,1.7,0,2.9-1.3,2.9-1.5s0-.4-.2-.4-.3,0-.4.2c-.2,0-.5.2-.9.2-1.3,0-1.7-1.4-1.6-3l.2-6c0-2.6-1.1-4-3.6-4s-6.4,2.4-6.4,4.2.2.5.5.5c.5,0,1.4-.2,2-.7.3-.2.3-.6.3-1.2,0-1.1,1.2-1.6,2.2-1.6,2.1,0,2.5,1.7,2.5,3v1.6c0,.5,0,.8-.6,1l-4.1,1.5c-2.2.8-2.9,1.6-2.9,2.9s.4,1.8,1.1,2.4c.6.5,1.4.8,2.4.8M68.3,72c0-1.3,1-1.9,3-2.5.6-.2,1.2-.3,1.4-.3s.3,0,.3.4v2c0,.7,0,1.2-.5,1.6s-1.4.9-2.1.9c-1.8,0-2.2-1.5-2.2-2.1"/>
  <path class="st0" d="M120.2,81.8c.7-.6,1.4-.8,2.3-.8,1.9,0,3,1.1,3.5,3.2h-7.1c.2-1,.6-1.8,1.3-2.4M126,81.3c-.9-.9-2.1-1.4-3.4-1.4s-2.6.5-3.6,1.6c-.9,1-1.4,2.4-1.4,4s.5,3.1,1.5,4.2,2.3,1.6,3.9,1.6,2.9-.5,4.2-1.4v-1.3c-1.3,1.1-2.7,1.6-4.1,1.6s-2.2-.4-3.1-1.3c-.9-.8-1.3-1.9-1.3-3.1s0-.4,0-.6h8.6c0-1.6-.5-2.9-1.4-3.8M112.6,79.9c-1,0-1.8.3-2.5.9s-1,1.3-1,2.1.2,1.1.6,1.6,1.2,1,2.4,1.5c1.2.5,2,.9,2.3,1.2.3.3.4.7.4,1,0,.6-.2,1-.6,1.4s-1,.5-1.7.5c-1,0-2.1-.3-3.4-1v1.1c1.1.7,2.2,1,3.3,1s1.9-.3,2.5-.9c.7-.6,1-1.3,1-2.1s-.2-1.2-.6-1.7-1.2-1-2.4-1.5c-1.2-.5-2-.9-2.3-1.2-.3-.3-.4-.7-.4-1,0-.5.2-1,.7-1.3.4-.4,1-.5,1.7-.5s1.9.4,3,1.1v-1.3c-1.1-.6-2-.9-2.9-.9M104,79.9c-1,0-1.8.3-2.5.9s-1,1.3-1,2.1.2,1.1.6,1.6,1.2,1,2.4,1.5c1.2.5,2,.9,2.3,1.2.3.3.4.7.4,1,0,.6-.2,1-.6,1.4s-1,.5-1.7.5c-1,0-2.1-.3-3.4-1v1.1c1.1.7,2.2,1,3.3,1s1.9-.3,2.6-.9,1-1.3,1-2.1-.2-1.2-.6-1.7-1.2-1-2.4-1.5c-1.2-.5-2-.9-2.3-1.2-.3-.3-.4-.7-.4-1,0-.5.2-1,.7-1.3.4-.4,1-.5,1.7-.5s1.9.4,3,1.1v-1.3c-1-.6-2-.9-2.9-.9M96.8,91h1.2v-10.9h-1.2v10.9ZM93.6,91v-10.9h-1.2v7.7c-.5.9-1.1,1.5-1.6,1.8s-1.2.5-1.9.5-1.6-.3-2.2-.9-.8-1.4-.8-2.4v-6.7h-1.2v6.8c0,1.4.4,2.5,1.1,3.2s1.7,1.1,2.9,1.1,1.5-.2,2-.5,1.1-.8,1.6-1.6h0v1.8h1.3ZM79.2,79.9c-1,0-1.8.3-2.5.9s-1,1.3-1,2.1.2,1.1.5,1.6c.4.5,1.2,1,2.4,1.5,1.2.5,2,.9,2.3,1.2.3.3.4.7.4,1,0,.6-.2,1-.6,1.4s-1,.5-1.7.5c-1,0-2.1-.3-3.4-1v1.1c1.1.7,2.2,1,3.3,1s1.9-.3,2.6-.9,1-1.3,1-2.1-.2-1.2-.6-1.7-1.2-1-2.4-1.5c-1.2-.5-2-.9-2.3-1.2-.3-.3-.4-.7-.4-1,0-.5.2-1,.7-1.3.5-.4,1-.5,1.7-.5s1.9.4,3,1.1v-1.3c-1-.6-2-.9-2.9-.9M79.2,79.9c-1,0-1.8.3-2.5.9s-1,1.3-1,2.1.2,1.1.5,1.6c.4.5,1.2,1,2.4,1.5,1.2.5,2,.9,2.3,1.2.3.3.4.7.4,1,0,.6-.2,1-.6,1.4s-1,.5-1.7.5c-1,0-2.1-.3-3.4-1v1.1c1.1.7,2.2,1,3.3,1s1.9-.3,2.6-.9,1-1.3,1-2.1-.2-1.2-.6-1.7-1.2-1-2.4-1.5c-1.2-.5-2-.9-2.3-1.2-.3-.3-.4-.7-.4-1,0-.5.2-1,.7-1.3.5-.4,1-.5,1.7-.5s1.9.4,3,1.1v-1.3c-1-.6-2-.9-2.9-.9M93.6,91v-10.9h-1.2v7.7c-.5.9-1.1,1.5-1.6,1.8s-1.2.5-1.9.5-1.6-.3-2.2-.9-.8-1.4-.8-2.4v-6.7h-1.2v6.8c0,1.4.4,2.5,1.1,3.2s1.7,1.1,2.9,1.1,1.5-.2,2-.5,1.1-.8,1.6-1.6h0v1.8h1.3ZM96.8,91h1.2v-10.9h-1.2v10.9ZM104,79.9c-1,0-1.8.3-2.5.9s-1,1.3-1,2.1.2,1.1.6,1.6,1.2,1,2.4,1.5c1.2.5,2,.9,2.3,1.2.3.3.4.7.4,1,0,.6-.2,1-.6,1.4s-1,.5-1.7.5c-1,0-2.1-.3-3.4-1v1.1c1.1.7,2.2,1,3.3,1s1.9-.3,2.6-.9,1-1.3,1-2.1-.2-1.2-.6-1.7-1.2-1-2.4-1.5c-1.2-.5-2-.9-2.3-1.2-.3-.3-.4-.7-.4-1,0-.5.2-1,.7-1.3.4-.4,1-.5,1.7-.5s1.9.4,3,1.1v-1.3c-1-.6-2-.9-2.9-.9M112.6,79.9c-1,0-1.8.3-2.5.9s-1,1.3-1,2.1.2,1.1.6,1.6,1.2,1,2.4,1.5c1.2.5,2,.9,2.3,1.2.3.3.4.7.4,1,0,.6-.2,1-.6,1.4s-1,.5-1.7.5c-1,0-2.1-.3-3.4-1v1.1c1.1.7,2.2,1,3.3,1s1.9-.3,2.5-.9c.7-.6,1-1.3,1-2.1s-.2-1.2-.6-1.7-1.2-1-2.4-1.5c-1.2-.5-2-.9-2.3-1.2-.3-.3-.4-.7-.4-1,0-.5.2-1,.7-1.3.4-.4,1-.5,1.7-.5s1.9.4,3,1.1v-1.3c-1.1-.6-2-.9-2.9-.9M126,81.3c-.9-.9-2.1-1.4-3.4-1.4s-2.6.5-3.6,1.6c-.9,1-1.4,2.4-1.4,4s.5,3.1,1.5,4.2,2.3,1.6,3.9,1.6,2.9-.5,4.2-1.4v-1.3c-1.3,1.1-2.7,1.6-4.1,1.6s-2.2-.4-3.1-1.3c-.9-.8-1.3-1.9-1.3-3.1s0-.4,0-.6h8.6c0-1.6-.5-2.9-1.4-3.8M120.2,81.8c.7-.6,1.4-.8,2.3-.8,1.9,0,3,1.1,3.5,3.2h-7.1c.2-1,.6-1.8,1.3-2.4"/>
  <path class="st0" d="M120.2,81.8c.7-.6,1.4-.8,2.3-.8,1.9,0,3,1.1,3.5,3.2h-7.1c.2-1,.6-1.8,1.3-2.4ZM126,81.3c-.9-.9-2.1-1.4-3.4-1.4s-2.6.5-3.6,1.6c-.9,1-1.4,2.4-1.4,4s.5,3.1,1.5,4.2,2.3,1.6,3.9,1.6,2.9-.5,4.2-1.4v-1.3c-1.3,1.1-2.7,1.6-4.1,1.6s-2.2-.4-3.1-1.3c-.9-.8-1.3-1.9-1.3-3.1s0-.4,0-.6h8.6c0-1.6-.5-2.9-1.4-3.8h.1ZM112.6,79.9c-1,0-1.8.3-2.5.9s-1,1.3-1,2.1.2,1.1.6,1.6,1.2,1,2.4,1.5c1.2.5,2,.9,2.3,1.2.3.3.4.7.4,1,0,.6-.2,1-.6,1.4s-1,.5-1.7.5c-1,0-2.1-.3-3.4-1v1.1c1.1.7,2.2,1,3.3,1s1.9-.3,2.5-.9c.7-.6,1-1.3,1-2.1s-.2-1.2-.6-1.7-1.2-1-2.4-1.5c-1.2-.5-2-.9-2.3-1.2-.3-.3-.4-.7-.4-1,0-.5.2-1,.7-1.3.4-.4,1-.5,1.7-.5s1.9.4,3,1.1v-1.3c-1.1-.6-2-.9-2.9-.9h0ZM104,79.9c-1,0-1.8.3-2.5.9s-1,1.3-1,2.1.2,1.1.6,1.6,1.2,1,2.4,1.5c1.2.5,2,.9,2.3,1.2.3.3.4.7.4,1,0,.6-.2,1-.6,1.4s-1,.5-1.7.5c-1,0-2.1-.3-3.4-1v1.1c1.1.7,2.2,1,3.3,1s1.9-.3,2.6-.9,1-1.3,1-2.1-.2-1.2-.6-1.7-1.2-1-2.4-1.5c-1.2-.5-2-.9-2.3-1.2-.3-.3-.4-.7-.4-1,0-.5.2-1,.7-1.3.4-.4,1-.5,1.7-.5s1.9.4,3,1.1v-1.3c-1-.6-2-.9-2.9-.9h-.2ZM96.8,91h1.2v-10.9h-1.2v10.9ZM93.6,91v-10.9h-1.2v7.7c-.5.9-1.1,1.5-1.6,1.8s-1.2.5-1.9.5-1.6-.3-2.2-.9-.8-1.4-.8-2.4v-6.7h-1.2v6.8c0,1.4.4,2.5,1.1,3.2s1.7,1.1,2.9,1.1,1.5-.2,2-.5,1.1-.8,1.6-1.6h0v1.8h1.3ZM79.2,79.9c-1,0-1.8.3-2.5.9s-1,1.3-1,2.1.2,1.1.5,1.6c.4.5,1.2,1,2.4,1.5,1.2.5,2,.9,2.3,1.2.3.3.4.7.4,1,0,.6-.2,1-.6,1.4s-1,.5-1.7.5c-1,0-2.1-.3-3.4-1v1.1c1.1.7,2.2,1,3.3,1s1.9-.3,2.6-.9,1-1.3,1-2.1-.2-1.2-.6-1.7-1.2-1-2.4-1.5c-1.2-.5-2-.9-2.3-1.2-.3-.3-.4-.7-.4-1,0-.5.2-1,.7-1.3.5-.4,1-.5,1.7-.5s1.9.4,3,1.1v-1.3c-1-.6-2-.9-2.9-.9h0ZM79.2,79.9c-1,0-1.8.3-2.5.9s-1,1.3-1,2.1.2,1.1.5,1.6c.4.5,1.2,1,2.4,1.5,1.2.5,2,.9,2.3,1.2.3.3.4.7.4,1,0,.6-.2,1-.6,1.4s-1,.5-1.7.5c-1,0-2.1-.3-3.4-1v1.1c1.1.7,2.2,1,3.3,1s1.9-.3,2.6-.9,1-1.3,1-2.1-.2-1.2-.6-1.7-1.2-1-2.4-1.5c-1.2-.5-2-.9-2.3-1.2-.3-.3-.4-.7-.4-1,0-.5.2-1,.7-1.3.5-.4,1-.5,1.7-.5s1.9.4,3,1.1v-1.3c-1-.6-2-.9-2.9-.9h0ZM93.6,91v-10.9h-1.2v7.7c-.5.9-1.1,1.5-1.6,1.8s-1.2.5-1.9.5-1.6-.3-2.2-.9-.8-1.4-.8-2.4v-6.7h-1.2v6.8c0,1.4.4,2.5,1.1,3.2s1.7,1.1,2.9,1.1,1.5-.2,2-.5,1.1-.8,1.6-1.6h0v1.8h1.3ZM96.8,91h1.2v-10.9h-1.2v10.9ZM104,79.9c-1,0-1.8.3-2.5.9s-1,1.3-1,2.1.2,1.1.6,1.6,1.2,1,2.4,1.5c1.2.5,2,.9,2.3,1.2.3.3.4.7.4,1,0,.6-.2,1-.6,1.4s-1,.5-1.7.5c-1,0-2.1-.3-3.4-1v1.1c1.1.7,2.2,1,3.3,1s1.9-.3,2.6-.9,1-1.3,1-2.1-.2-1.2-.6-1.7-1.2-1-2.4-1.5c-1.2-.5-2-.9-2.3-1.2-.3-.3-.4-.7-.4-1,0-.5.2-1,.7-1.3.4-.4,1-.5,1.7-.5s1.9.4,3,1.1v-1.3c-1-.6-2-.9-2.9-.9h-.2ZM112.6,79.9c-1,0-1.8.3-2.5.9s-1,1.3-1,2.1.2,1.1.6,1.6,1.2,1,2.4,1.5c1.2.5,2,.9,2.3,1.2.3.3.4.7.4,1,0,.6-.2,1-.6,1.4s-1,.5-1.7.5c-1,0-2.1-.3-3.4-1v1.1c1.1.7,2.2,1,3.3,1s1.9-.3,2.5-.9c.7-.6,1-1.3,1-2.1s-.2-1.2-.6-1.7-1.2-1-2.4-1.5c-1.2-.5-2-.9-2.3-1.2-.3-.3-.4-.7-.4-1,0-.5.2-1,.7-1.3.4-.4,1-.5,1.7-.5s1.9.4,3,1.1v-1.3c-1.1-.6-2-.9-2.9-.9h0ZM126,81.3c-.9-.9-2.1-1.4-3.4-1.4s-2.6.5-3.6,1.6c-.9,1-1.4,2.4-1.4,4s.5,3.1,1.5,4.2,2.3,1.6,3.9,1.6,2.9-.5,4.2-1.4v-1.3c-1.3,1.1-2.7,1.6-4.1,1.6s-2.2-.4-3.1-1.3c-.9-.8-1.3-1.9-1.3-3.1s0-.4,0-.6h8.6c0-1.6-.5-2.9-1.4-3.8h.1ZM120.2,81.8c.7-.6,1.4-.8,2.3-.8,1.9,0,3,1.1,3.5,3.2h-7.1c.2-1,.6-1.8,1.3-2.4Z"/>
  <rect class="st0" x="96.8" y="76.9" width="1.2" height="2"/>
  <rect class="st0" x="96.8" y="76.9" width="1.2" height="2"/>
</svg>