<?xml version="1.0" encoding="UTF-8"?>
<svg id="Livello_1" xmlns="http://www.w3.org/2000/svg" version="1.1" viewBox="0 0 141.7 141.7">
  <!-- Generator: Adobe Illustrator 29.1.0, SVG Export Plug-In . SVG Version: 2.1.0 Build 46)  -->
  <defs>
    <style>
      .st0 {
        fill: #1d1d1b;
      }
    </style>
  </defs>
  <path class="st0" d="M14.2,48.9v43.9h113.4v-43.9H14.2ZM126.3,91.6H15.4v-41.5h111v41.5h0Z"/>
  <path class="st0" d="M20.6,76.5c.4.9.9,1.9,1.4,2.7.6.9,1.2,1.7,2,2.4.7.7,1.6,1.4,2.4,2,.9.6,1.8,1,2.7,1.4.9.4,1.9.6,2.8.8.9.2,1.9.2,2.8.2s1.9,0,2.8-.2c1-.2,1.9-.5,2.8-.8,1-.4,1.9-.9,2.7-1.4.9-.6,1.7-1.2,2.4-2s1.4-1.6,2-2.4c.6-.9,1-1.8,1.4-2.7.4-.9.6-1.9.8-2.9.2-.9.3-1.8.3-2.8s0-1.9-.3-2.8c-.2-1-.5-1.9-.8-2.9-.4-1-.9-1.9-1.4-2.7-.6-.9-1.2-1.7-2-2.4-.7-.7-1.6-1.4-2.4-2-.9-.6-1.8-1-2.7-1.4s-1.9-.6-2.8-.8c-1.8-.3-3.7-.3-5.6,0-1,.2-1.9.5-2.8.8-1,.4-1.9.9-2.7,1.4-.9.6-1.7,1.2-2.4,2-.7.7-1.4,1.6-2,2.4-.6.9-1,1.8-1.4,2.7s-.6,1.9-.8,2.9c-.2.9-.2,1.8-.2,2.8s0,1.9.2,2.8c.2,1,.5,1.9.8,2.9ZM21,68.3c.2-.9.4-1.8.7-2.6.4-.9.8-1.7,1.3-2.5.5-.8,1.1-1.6,1.8-2.3.7-.7,1.4-1.3,2.3-1.8.8-.5,1.6-1,2.5-1.3.8-.3,1.7-.6,2.6-.8.8-.2,1.7-.2,2.6-.2s1.7,0,2.6.2c.9.2,1.8.4,2.6.8.9.3,1.7.8,2.5,1.3s1.6,1.2,2.3,1.8c.7.7,1.3,1.4,1.8,2.3.5.8,1,1.6,1.3,2.5.3.8.6,1.7.8,2.6.2.8.2,1.7.2,2.6s0,1.7-.2,2.6-.4,1.8-.8,2.6c-.4.9-.8,1.7-1.3,2.5s-1.1,1.6-1.8,2.3c-.7.7-1.4,1.3-2.3,1.8-.8.5-1.6,1-2.5,1.3s-1.7.6-2.6.8c-1.7.3-3.4.3-5.1,0-.9-.2-1.8-.4-2.6-.8-.9-.4-1.7-.8-2.5-1.3s-1.6-1.1-2.3-1.8c-.7-.7-1.3-1.4-1.8-2.3-.5-.8-1-1.6-1.3-2.5s-.6-1.7-.7-2.6c-.2-.8-.2-1.7-.2-2.6s0-1.7.2-2.6h0Z"/>
  <path class="st0" d="M24.1,75.2c.4.5.8.8,1.3,1.1.5.2,1,.4,1.6.4h.9l1.2-.5,1.2-.9c.4-.4.6-1,.7-1.6v-.6c.1,0-1.1-.2-1.1-.2v.6c-.1,0-.6,1-.6,1l-.8.6-.9.3h-.7l-1.1-.2-.9-.7c-.3-.3-.5-.8-.7-1.4s-.3-1.3-.3-2.2,0-1.3.2-1.9c.2-.5.4-1,.6-1.4l.9-.9,1.2-.3,1.1.2.8.5.5.8.2.8v.6h1.3v-.7l-.4-1.2-.7-1.1-1.2-.8c-.5-.2-1-.3-1.5-.3s-1.3,0-1.8.4-1,.7-1.4,1.2-.6,1.1-.8,1.8c-.2.7-.3,1.4-.3,2.2s.1,1.8.3,2.5c.2.7.5,1.4.9,1.8h.3Z"/>
  <polygon class="st0" points="34.8 71.2 39.7 71.2 39.7 76.4 40.9 76.4 40.9 65.4 39.7 65.4 39.7 70 34.8 70 34.8 65.4 33.6 65.4 33.6 76.4 34.8 76.4 34.8 71.2"/>
  <rect class="st0" x="44.2" y="65.4" width="1.2" height="11"/>
  <polygon class="st0" points="60.7 66.7 55.5 66.7 55.5 63.3 60.3 63.3 60.3 62.1 55.5 62.1 55.5 59 60.6 59 60.6 57.8 54.3 57.8 54.3 67.9 60.7 67.9 60.7 66.7"/>
  <path class="st0" d="M63.5,67l.3.3.5.4.7.2h2l1.1-.5.9-1c.2-.4.3-.9.3-1.4l-.2-1.1-.5-.8-.7-.4-.8-.3h-.3c0,0-1.7-.6-1.7-.6l-.5-.2-.4-.3-.2-.4v-1.2l.3-.6.6-.4.8-.2c.5,0,.9,0,1.2.2l.6.5.3.6v.7c0,0,0,.6,0,.6h1.2v-1.6c0,0-.6-1-.6-1l-1.1-.9c-.4-.2-1-.3-1.7-.3s-.9,0-1.3.3l-1,.7-.5.9-.2,1,.2,1,.5.8.7.5.7.3,1.7.5h.2l.7.2.3.2.2.3v1.6l-.5.5-.7.3c-.5,0-1.1,0-1.5,0h-.4c0,0-.3-.3-.3-.3l-.3-.3-.4-.6v-.9h-1.2v.6l.2.9.6.8v.4Z"/>
  <path class="st0" d="M72.5,67l.3.3.5.4.7.2h2l1.1-.5.9-1c.2-.4.3-.9.3-1.4l-.2-1.1-.5-.8-.7-.4-.8-.3h-.3c0,0-1.7-.6-1.7-.6l-.5-.2-.4-.3-.2-.4v-1.2l.3-.5.6-.4.8-.2,1.2.2.6.5.3.6v.7c0,0,0,.6,0,.6h1.2v-1.6c0,0-.6-1-.6-1l-1.1-.9c-.4-.2-1-.3-1.7-.3s-.9,0-1.3.3l-1,.7-.5.9-.2,1,.2,1,.5.8.7.5.7.3,1.7.5h.2l.7.2.3.2.2.3v1.6l-.5.5-.7.3c-.5,0-1.1,0-1.5,0h-.4c0,0-.3-.3-.3-.3l-.3-.3-.4-.6v-.9h-1.2v.6l.2.9.6.8v.3Z"/>
  <path class="st0" d="M82,64.8h3.2l1.2,3.3,1.1-.4-1.4-4.1-1.9-5.3-.2-.4h-.9l-3.5,9.8,1.1.4,1.2-3.3h.1ZM83.7,60.2l1.2,3.4h-2.4s1.2-3.4,1.2-3.4Z"/>
  <polygon class="st0" points="91 67.9 92.2 67.9 92.2 63.9 95.5 58.2 94.5 57.6 91.6 62.5 88.6 57.6 87.6 58.2 91 63.9 91 67.9"/>
  <polygon class="st0" points="104.5 66.7 99.3 66.7 99.3 63.3 104.1 63.3 104.1 62.1 99.3 62.1 99.3 59 104.4 59 104.4 57.8 98.1 57.8 98.1 67.9 104.5 67.9 104.5 66.7"/>
  <path class="st0" d="M107.3,66.9l1.1.9c.4.2.9.3,1.5.3s1.1,0,1.5-.3l1.1-.9.6-1.3c0-.5.2-.9.2-1.5v-6.3h-1.2v7.5c0,0-.6.9-.6.9l-.7.5-1,.2-.9-.2-.6-.5-.4-.8v-1c0,0,0-6.5,0-6.5h-1.2v6.5l.2,1.4.6,1.2h0Z"/>
  <path class="st0" d="M116.3,63.5h2.6l1,.2.4.2.2.2v.5c0,0,.2,1.6.2,1.6v.8c0,0,.5.7.5.7l.3.5,1-.7-.3-.5-.2-.3v-2l-.2-.9-.5-.7h0l.3-.3.5-.8.2-1c0-.5,0-1-.2-1.4l-.7-1-1-.5h-1c0,0-3.9,0-3.9,0v10h1.2v-4.4h-.3ZM116.3,59h3.4c0,0,.5.4.5.4l.3.5.2.9v.7l-.3.3-.5.3-.9.2h-2.7v-3.3Z"/>
  <polygon class="st0" points="54.3 83.9 55.5 83.9 55.5 79.4 60.2 79.4 60.2 78.2 55.5 78.2 55.5 75.1 60.7 75.1 60.7 73.9 54.3 73.9 54.3 83.9"/>
  <path class="st0" d="M65.7,74.1c-.6.3-1,.8-1.3,1.3s-.6,1.1-.7,1.7c0,.6-.2,1.1-.2,1.7s0,1.1.2,1.7c0,.6.4,1.2.7,1.7.3.6.8,1,1.3,1.3.6.4,1.2.5,2,.5s1.5-.2,2.1-.5,1-.8,1.3-1.4c.3-.5.5-1.1.7-1.7,0-.6.2-1.1.2-1.7s0-1.1-.2-1.7c0-.6-.4-1.2-.7-1.7-.3-.5-.8-1-1.3-1.3-.6-.3-1.2-.5-2-.5s-1.4.2-2,.5h0ZM70.1,76.1l.6,1.3c0,.5.2,1,.2,1.4s0,.9-.2,1.4l-.5,1.3-.9.9c-.4.2-.9.3-1.4.3s-1,0-1.4-.3l-.9-.9-.5-1.3c0-.5-.2-1-.2-1.4s0-1,.2-1.4l.5-1.3.9-.9c.4-.2.9-.3,1.4-.3s1,0,1.4.3l.9.9h0Z"/>
  <polygon class="st0" points="80.7 81.4 75.9 74.1 75.7 73.9 74.8 73.9 74.8 83.9 76 83.9 76 76.4 80.9 83.9 81.9 83.9 81.9 73.9 80.7 73.9 80.7 81.4"/>
  <path class="st0" d="M91.3,75.3c-.3-.5-.7-.8-1.2-1.1-.5-.2-1-.4-1.6-.4h-3.6v10h3.6c.7,0,1.3-.2,1.8-.5s.9-.8,1.2-1.3c.3-.5.5-1.1.6-1.6,0-.6.2-1.1.2-1.7s0-1.3-.2-1.9-.4-1.1-.7-1.5h-.1ZM90.9,80.2l-.5,1.3-.8.9-1.2.3h-2.4v-7.6h2.4l1,.2.8.7.5,1.2c0,.5.2,1,.2,1.6s0,1-.2,1.5h.2Z"/>
  <polygon class="st0" points="96.3 79.4 101.4 79.4 101.4 78.2 96.3 78.2 96.3 75.1 101.8 75.1 101.8 73.9 95.1 73.9 95.1 83.9 101.8 83.9 101.8 82.7 96.3 82.7 96.3 79.4"/>
  <path class="st0" d="M105.6,83l1.1.9c.4.2,1,.3,1.5.3s1.1,0,1.6-.3l1.2-.9.7-1.3c0-.5.2-1,.2-1.5v-6.3h-1.2v6.3l-.2,1.1-.4.9-.7.5-1.1.2-1-.2-.7-.5-.4-.8v-1c0,0,0-6.5,0-6.5h-1.2v6.5c0,.5,0,1,.2,1.4l.6,1.2h0Z"/>
  <path class="st0" d="M116,79.5h2.8l1,.2.5.2.2.2v.5c0,0,.2,1.6.2,1.6v.8c0,0,.5.7.5.7l.4.5,1-.7-.4-.5-.2-.3v-2.1c0,0-.3-.9-.3-.9l-.5-.7h0l.3-.3.6-.8.2-1.1c0-.5,0-1-.3-1.4l-.7-1-1-.5h-1.1c0,0-4.1,0-4.1,0v10h1.2v-4.4h-.2ZM116,75.1h3.6c0,0,.6.4.6.4l.3.5.2.9v.7c0,0-.3.3-.3.3l-.6.3-1,.2h-2.9v-3.3h.1Z"/>
</svg>